<?xml version="1.0" standalone="no"?>
<!DOCTYPE svg PUBLIC "-//W3C//DTD SVG 20010904//EN"
 "http://www.w3.org/TR/2001/REC-SVG-20010904/DTD/svg10.dtd">
<svg version="1.0" xmlns="http://www.w3.org/2000/svg"
 width="271.000000pt" height="300.000000pt" viewBox="0 0 271.000000 300.000000"
 preserveAspectRatio="xMidYMid meet">

<g transform="translate(0.000000,300.000000) scale(0.100000,-0.100000)"
fill="#000000" stroke="none">
<path d="M1305 2987 c-16 -7 -49 -22 -72 -35 -103 -54 -1103 -617 -1146 -644
-92 -59 -87 -14 -86 -765 0 -362 3 -689 8 -727 6 -61 11 -73 38 -95 18 -14
307 -181 643 -370 463 -260 622 -345 653 -348 34 -4 54 2 102 27 92 50 1102
618 1168 657 104 63 97 4 97 812 0 770 2 738 -61 789 -31 25 -1141 649 -1224
688 -55 26 -76 28 -120 11z m291 -512 c180 -46 358 -148 478 -276 66 -70 136
-165 136 -185 0 -6 -97 -66 -216 -134 l-215 -123 -16 23 c-94 134 -241 210
-408 210 -215 0 -385 -119 -465 -325 -19 -48 -23 -80 -24 -160 -1 -146 36
-246 126 -341 216 -228 562 -211 758 37 l37 47 209 -115 c115 -63 213 -119
218 -123 25 -24 -163 -242 -280 -326 -82 -59 -229 -127 -334 -156 -73 -20
-108 -23 -250 -22 -137 0 -178 4 -244 22 -99 28 -250 99 -331 156 -278 199
-442 536 -422 870 26 440 331 811 757 921 139 35 346 35 486 0z"/>
</g>
</svg>
