<?xml version="1.0" standalone="no"?>
<!DOCTYPE svg PUBLIC "-//W3C//DTD SVG 20010904//EN"
 "http://www.w3.org/TR/2001/REC-SVG-20010904/DTD/svg10.dtd">
<svg version="1.0" xmlns="http://www.w3.org/2000/svg"
 width="2400.000000pt" height="2390.000000pt" viewBox="0 0 2400.000000 2390.000000"
 preserveAspectRatio="xMidYMid meet">

<g transform="translate(0.000000,2390.000000) scale(0.100000,-0.100000)"
fill="#000000" stroke="none">
<path d="M11400 23884 c-747 -23 -1320 -74 -1905 -169 -1613 -261 -2703 -850
-3121 -1685 -68 -135 -105 -237 -141 -386 l-28 -119 0 -505 c0 -278 1 -952 3
-1497 l2 -993 2900 0 2900 0 0 -410 0 -410 -1277 -1 c-703 0 -2628 -2 -4278
-5 -2944 -5 -3003 -5 -3140 -25 -708 -102 -1329 -414 -1840 -924 -316 -315
-538 -630 -760 -1080 -472 -955 -695 -2134 -695 -3675 0 -1961 344 -3453 1036
-4490 131 -197 246 -340 403 -503 453 -469 947 -744 1550 -865 l136 -27 1142
-3 1142 -3 4 1578 c3 1566 3 1579 25 1733 75 525 190 911 389 1303 381 749
986 1249 1792 1476 211 60 426 100 721 133 78 9 935 13 3285 18 3493 7 3187 1
3540 65 715 130 1323 427 1758 860 206 205 355 412 486 675 150 302 233 580
292 976 l23 149 5 2975 c3 1636 2 3009 -2 3050 -56 526 -366 1089 -816 1485
-875 767 -2226 1180 -4206 1285 -191 11 -1128 20 -1325 14z m-2436 -1858 c567
-147 903 -740 740 -1304 -78 -269 -269 -503 -517 -633 -419 -219 -926 -133
-1250 212 -335 356 -377 884 -105 1299 58 89 198 228 286 285 198 127 378 177
612 171 103 -3 158 -10 234 -30z"/>
</g>
</svg>
