<?xml version="1.0" standalone="no"?>
<!DOCTYPE svg PUBLIC "-//W3C//DTD SVG 20010904//EN"
 "http://www.w3.org/TR/2001/REC-SVG-20010904/DTD/svg10.dtd">
<svg version="1.0" xmlns="http://www.w3.org/2000/svg"
 width="1000.000000pt" height="1000.000000pt" viewBox="0 0 1000.000000 1000.000000"
 preserveAspectRatio="xMidYMid meet">

<g transform="translate(0.000000,1000.000000) scale(0.100000,-0.100000)"
fill="#000000" stroke="none">
<path d="M4956 9930 c-15 -5 -37 -17 -47 -26 -10 -9 -80 -115 -154 -235 l-135
-217 -57 -4 -58 -5 -100 106 c-283 301 -291 308 -375 290 -64 -14 -88 -55
-179 -302 -47 -125 -89 -231 -95 -236 -6 -4 -33 -16 -60 -24 l-49 -17 -201
144 c-111 78 -211 148 -223 154 -53 29 -142 3 -177 -50 -9 -13 -34 -136 -58
-279 l-42 -255 -48 -27 c-26 -15 -53 -27 -59 -27 -6 0 -116 47 -243 105 -128
58 -245 105 -262 105 -42 0 -96 -32 -119 -71 -22 -37 -22 -60 -9 -399 l6 -166
-47 -38 -47 -39 -242 57 c-132 31 -254 56 -269 56 -71 0 -137 -63 -137 -131 0
-19 25 -143 56 -275 l57 -242 -38 -47 -39 -47 -175 7 c-346 13 -352 12 -392
-13 -40 -24 -69 -74 -69 -118 0 -15 47 -132 105 -260 58 -127 105 -237 105
-244 0 -7 -12 -33 -26 -59 l-27 -47 -255 -42 c-147 -24 -266 -49 -279 -58 -60
-39 -81 -130 -43 -191 10 -18 78 -114 151 -215 73 -100 132 -187 133 -193 0
-5 -6 -34 -13 -62 -17 -60 21 -41 -321 -167 -145 -54 -181 -71 -208 -100 -28
-32 -32 -42 -32 -93 l0 -57 87 -86 c49 -47 138 -133 199 -191 l111 -104 -6
-58 -6 -58 -219 -137 c-121 -75 -229 -149 -240 -164 -27 -38 -27 -118 0 -156
12 -15 119 -89 240 -164 l219 -137 6 -58 6 -58 -116 -109 c-64 -61 -153 -146
-198 -191 l-83 -81 0 -57 c0 -91 24 -111 227 -187 93 -35 202 -76 244 -92 l75
-28 15 -53 c7 -28 13 -57 13 -62 -1 -6 -60 -93 -133 -193 -73 -101 -141 -197
-151 -215 -38 -61 -17 -152 43 -192 19 -12 469 -94 522 -95 11 0 65 -91 65
-110 0 -7 -47 -117 -105 -244 -58 -128 -105 -245 -105 -262 0 -42 32 -96 71
-119 37 -22 52 -22 390 -10 l175 7 39 -47 38 -47 -57 -242 c-31 -132 -56 -257
-56 -276 0 -66 64 -130 130 -130 19 0 144 25 276 57 l242 56 47 -38 47 -39 -6
-166 c-14 -348 -13 -361 12 -401 24 -40 74 -69 119 -69 15 0 132 47 258 105
127 58 236 105 244 105 7 0 34 -11 60 -25 l47 -26 42 -257 c24 -144 49 -267
58 -280 35 -53 124 -79 177 -51 12 7 108 73 212 149 105 75 195 139 201 143
13 8 103 -20 121 -37 6 -6 50 -114 97 -241 103 -275 117 -295 213 -295 l57 0
81 83 c45 45 130 134 191 198 l109 116 57 -5 58 -4 131 -211 c72 -117 141
-222 152 -235 45 -49 148 -49 194 0 12 13 80 117 151 233 l130 210 59 6 58 6
114 -121 c63 -66 149 -156 191 -198 l76 -78 58 0 c54 0 61 3 95 37 31 32 50
74 120 263 45 124 88 230 94 236 18 17 108 45 121 37 6 -4 97 -68 201 -143
105 -76 200 -142 212 -149 54 -28 142 -2 178 52 9 14 33 130 57 280 l42 256
47 26 c26 14 53 25 60 25 8 0 118 -47 244 -105 127 -58 243 -105 258 -105 45
0 94 29 119 69 25 40 26 46 13 392 l-7 175 47 39 47 38 242 -56 c132 -32 257
-57 276 -57 66 0 130 64 130 130 0 19 -25 144 -56 276 l-57 242 38 47 39 47
175 -7 c325 -12 353 -11 388 8 36 19 73 82 73 124 0 15 -47 131 -105 259 -58
127 -105 237 -105 244 0 19 54 110 65 110 53 1 503 83 522 95 60 40 81 131 44
191 -11 18 -79 114 -152 215 -72 101 -132 188 -133 193 0 6 6 35 13 63 l15 53
75 28 c42 16 151 57 244 92 203 76 227 96 227 187 l0 57 -82 81 c-46 45 -135
130 -199 191 l-116 109 6 58 6 58 219 137 c121 75 228 149 240 164 27 38 27
118 0 156 -11 15 -119 89 -240 164 l-219 137 -6 58 -6 58 111 104 c61 58 150
144 199 191 l87 86 0 57 c0 92 -26 113 -240 193 -346 129 -304 107 -321 167
-7 28 -13 57 -13 62 1 6 60 93 133 193 73 101 141 197 151 215 38 61 17 152
-43 191 -13 9 -132 34 -279 58 l-255 42 -27 47 c-14 26 -26 52 -26 59 0 7 47
117 105 244 58 128 105 245 105 262 0 42 -32 96 -71 119 -37 22 -52 22 -390
10 l-175 -7 -39 47 -38 47 57 242 c31 132 56 256 56 275 0 68 -66 131 -137
131 -15 0 -137 -25 -269 -56 l-242 -57 -46 38 c-53 44 -50 13 -37 345 10 229
4 262 -51 301 -64 46 -86 41 -340 -75 -129 -58 -239 -106 -246 -106 -7 0 -34
12 -60 27 l-49 27 -41 254 c-25 153 -47 264 -57 278 -36 55 -124 81 -178 52
-12 -6 -112 -76 -223 -154 l-201 -144 -49 16 c-27 9 -54 22 -60 28 -7 6 -49
112 -95 236 -91 243 -116 285 -179 299 -84 18 -88 15 -370 -285 l-105 -111
-58 6 -58 6 -137 219 c-75 121 -148 228 -162 237 -31 22 -86 31 -124 19z m159
-897 c50 -26 118 -99 141 -150 10 -23 17 -66 18 -108 1 -114 -50 -202 -154
-263 -40 -24 -55 -27 -135 -27 -108 0 -149 18 -217 94 -76 85 -97 202 -54 306
22 51 95 125 151 152 43 21 61 23 130 20 56 -2 92 -10 120 -24z m-550 -700
c271 -284 303 -309 411 -307 100 1 144 31 371 249 109 105 226 217 259 248
l62 58 118 -26 c551 -124 1077 -380 1509 -736 132 -109 389 -367 498 -500 140
-172 337 -464 337 -500 0 -8 -79 -192 -176 -409 -195 -438 -203 -466 -170
-568 34 -102 61 -120 449 -292 287 -127 351 -158 358 -178 13 -34 23 -398 15
-514 l-8 -98 -198 0 c-146 0 -200 -3 -208 -12 -5 -7 -12 -89 -15 -183 -4 -148
-8 -180 -31 -250 -14 -44 -42 -101 -61 -127 -136 -185 -484 -222 -679 -73 -53
40 -64 64 -97 212 -90 400 -194 578 -466 800 -51 42 -93 78 -93 82 0 4 15 15
33 25 76 44 265 195 351 279 158 156 247 292 308 467 32 93 33 99 32 260 0
136 -4 178 -22 242 -54 198 -150 357 -307 513 -209 209 -436 331 -765 413
l-105 27 -1977 2 c-1088 2 -1978 7 -1978 12 0 17 298 298 415 392 442 354 923
587 1475 713 58 14 108 25 112 25 4 1 113 -110 243 -246z m-2955 -1953 c61
-30 106 -75 138 -135 36 -68 38 -188 5 -251 -50 -93 -118 -146 -215 -165 -108
-22 -226 26 -289 117 -113 164 -43 379 144 446 67 24 156 19 217 -12z m6990
-11 c123 -55 192 -188 168 -321 -17 -93 -68 -162 -152 -206 -44 -23 -63 -27
-136 -27 -69 0 -93 4 -128 23 -147 78 -204 259 -126 402 34 62 91 114 148 134
62 22 172 20 226 -5z m-6040 -1174 l0 -1155 -516 2 -517 3 -19 68 c-31 116
-76 355 -95 507 -19 158 -24 674 -7 759 l9 43 333 148 c208 92 345 159 364
177 16 15 42 48 56 73 23 39 27 56 26 125 0 77 -3 85 -72 239 -40 87 -72 160
-72 162 0 2 115 4 255 4 l255 0 0 -1155z m2943 1110 c147 -38 268 -123 313
-220 35 -74 33 -172 -4 -240 -49 -89 -168 -157 -329 -187 -51 -10 -224 -13
-683 -13 l-615 0 -3 338 -2 337 633 0 c527 0 642 -2 690 -15z m-233 -1659
c161 -53 279 -155 354 -307 51 -104 62 -145 135 -501 68 -329 95 -428 141
-524 78 -161 215 -316 340 -384 l65 -35 799 -5 799 -5 -67 -85 c-118 -149
-259 -300 -275 -296 -69 20 -639 136 -669 136 -94 0 -191 -61 -230 -146 -12
-27 -56 -206 -97 -398 -42 -196 -80 -353 -87 -358 -7 -4 -74 -32 -148 -62
-886 -354 -1900 -336 -2785 51 -33 15 -61 27 -63 28 -1 1 -38 167 -81 369 -51
235 -87 378 -100 399 -50 81 -137 129 -230 129 -31 -1 -182 -28 -336 -62 -154
-33 -291 -63 -305 -66 -21 -4 -38 9 -113 95 -96 107 -193 226 -208 254 -9 16
64 17 1475 17 816 0 1491 3 1500 6 14 6 16 63 16 549 0 424 -3 546 -12 552 -7
4 -214 9 -460 11 l-448 3 0 330 0 330 518 -3 c465 -4 523 -6 572 -22z m-2335
-2397 c130 -61 197 -215 155 -357 -44 -145 -212 -232 -365 -187 -83 24 -166
107 -191 190 -71 245 173 461 401 354z m4341 -13 c111 -52 169 -143 169 -266
0 -125 -59 -215 -173 -268 -47 -21 -64 -24 -131 -20 -88 5 -137 27 -193 85
-147 152 -88 408 111 479 60 22 159 17 217 -10z"/>
</g>
</svg>
