<?xml version="1.0" standalone="no"?>
<!DOCTYPE svg PUBLIC "-//W3C//DTD SVG 20010904//EN"
 "http://www.w3.org/TR/2001/REC-SVG-20010904/DTD/svg10.dtd">
<svg version="1.0" xmlns="http://www.w3.org/2000/svg"
 width="1024.000000pt" height="1024.000000pt" viewBox="0 0 1024.000000 1024.000000"
 preserveAspectRatio="xMidYMid meet">

<g transform="translate(0.000000,1024.000000) scale(0.100000,-0.100000)"
fill="#11111b" stroke="none">
<path d="M2699 9154 c-13 -16 -14 -36 -8 -119 3 -55 2 -147 -3 -204 -7 -72 -7
-111 1 -127 6 -13 8 -36 6 -51 -13 -71 -24 -307 -16 -322 6 -10 2 -105 -9
-246 -11 -143 -14 -237 -9 -247 10 -19 -35 -568 -51 -627 -10 -37 -85 -121
-108 -121 -7 0 -39 -24 -70 -54 -88 -83 -283 -236 -302 -236 -9 0 -66 -30
-126 -66 -137 -83 -238 -134 -263 -134 -11 0 -48 -7 -83 -16 -47 -12 -91 -15
-174 -12 l-112 5 -147 67 c-320 145 -460 164 -415 55 32 -76 270 -293 534
-486 232 -170 712 -474 913 -579 60 -31 72 -41 68 -58 -2 -12 -32 -174 -66
-361 -34 -187 -66 -354 -73 -370 -12 -35 -205 -225 -227 -225 -8 0 -51 -34
-96 -75 -45 -41 -88 -75 -95 -75 -8 0 -37 -16 -64 -35 -27 -19 -59 -35 -71
-35 -28 0 -47 -28 -74 -107 -11 -35 -54 -127 -94 -206 -98 -190 -136 -298
-142 -409 -8 -119 8 -157 96 -241 181 -170 609 -448 805 -522 81 -31 119 -32
147 -4 23 23 23 65 -1 235 l-11 82 42 93 c22 52 62 132 89 179 27 47 60 125
74 173 23 79 24 91 12 115 -20 39 -13 226 12 319 11 39 18 82 15 95 -2 13 5
44 16 70 l20 48 108 -80 c59 -45 124 -93 143 -109 84 -67 564 -375 719 -461
150 -83 137 -70 157 -157 9 -43 31 -105 48 -138 61 -118 217 -256 471 -416
232 -147 388 -219 473 -219 59 0 140 27 147 50 3 10 33 46 65 80 33 34 60 69
60 77 0 8 16 33 35 56 49 57 120 205 151 317 15 52 46 138 69 190 41 92 105
254 105 265 0 15 -42 -3 -176 -76 -82 -45 -165 -92 -184 -103 -19 -12 -62 -32
-95 -45 -104 -42 -237 -108 -332 -165 -91 -55 -198 -100 -214 -90 -17 10 -10
235 10 324 26 118 126 386 158 422 8 9 23 54 34 100 20 90 42 141 90 204 26
35 30 47 24 75 -10 44 -134 169 -267 267 -245 183 -588 379 -681 389 -40 5
-46 3 -66 -25 -11 -17 -21 -34 -21 -40 0 -5 -7 -16 -17 -23 -9 -8 -24 -26 -33
-41 -14 -24 -92 -89 -168 -141 -54 -37 -203 -117 -218 -117 -8 0 -64 -27 -122
-59 -95 -53 -115 -61 -182 -67 -73 -6 -184 8 -194 25 -3 4 22 61 55 126 32 66
59 130 59 143 0 22 51 109 163 277 155 232 1157 1305 1259 1348 18 8 89 58
157 111 68 53 131 96 140 96 9 0 34 14 55 30 22 17 41 28 43 27 6 -7 -40 -112
-58 -132 -10 -11 -45 -68 -78 -128 -33 -59 -73 -120 -88 -136 -16 -16 -51 -63
-78 -105 -28 -41 -56 -76 -62 -76 -7 0 -36 -29 -64 -65 -28 -36 -54 -65 -59
-65 -14 0 -76 -94 -83 -126 -9 -48 30 -120 109 -195 176 -167 603 -447 821
-537 78 -32 98 -36 174 -36 106 0 111 3 242 138 110 114 136 154 143 229 3 29
19 82 35 119 40 90 47 134 23 141 -33 9 -106 17 -250 27 -78 5 -194 17 -259
26 l-117 18 7 46 c4 25 9 63 10 85 2 22 22 97 44 166 23 70 41 133 41 142 0
57 276 570 335 622 12 11 59 66 104 123 50 61 89 102 100 102 10 0 46 32 80
70 36 40 71 70 81 70 24 0 50 80 50 152 0 47 -3 51 -67 116 -135 134 -492 376
-722 490 -169 84 -197 86 -321 26 -99 -48 -187 -117 -217 -171 -11 -21 -33
-74 -48 -118 -15 -44 -33 -92 -41 -106 -7 -15 -15 -37 -18 -51 -2 -14 -18 -52
-35 -86 -17 -34 -31 -71 -31 -82 0 -12 -23 -64 -51 -115 -28 -52 -48 -99 -45
-104 4 -5 -25 -62 -64 -126 -39 -64 -68 -121 -65 -126 3 -5 -32 -68 -79 -139
-48 -72 -86 -138 -86 -147 0 -23 -211 -269 -445 -518 -114 -121 -328 -355
-476 -520 -244 -272 -532 -565 -545 -553 -6 6 61 376 69 385 3 3 27 -2 53 -11
64 -22 121 -21 132 2 16 31 -6 77 -78 160 l-71 81 51 298 c70 412 66 398 122
469 75 96 198 285 192 295 -3 5 13 39 34 76 69 118 152 291 152 317 0 13 15
64 34 113 18 48 41 113 50 145 13 46 19 55 35 51 15 -4 31 17 82 106 35 61 69
110 75 111 7 0 31 33 55 73 23 39 46 74 51 75 5 2 20 27 34 55 15 29 34 61 44
72 34 38 80 164 95 257 8 51 20 113 26 138 25 101 23 138 -7 181 -83 120 -488
409 -772 551 -115 58 -154 73 -200 76 -47 3 -60 1 -73 -14z"/>
<path d="M6125 7154 c-27 -27 -9 -63 115 -225 82 -106 102 -146 154 -306 101
-312 97 -293 111 -658 7 -181 18 -418 23 -525 6 -107 16 -312 22 -455 6 -143
16 -289 21 -325 15 -97 26 -201 49 -450 12 -124 32 -308 46 -410 14 -102 45
-344 69 -538 83 -659 142 -990 275 -1557 27 -115 74 -322 104 -460 61 -274 74
-325 83 -325 6 0 4 40 -22 395 -8 110 -19 281 -25 380 -13 224 -34 437 -66
670 -68 495 -83 610 -78 614 2 3 19 -9 37 -26 86 -82 416 -312 638 -445 199
-120 408 -218 466 -218 19 0 44 18 94 71 38 40 69 79 69 88 0 9 -16 40 -36 70
-69 103 -80 156 -39 197 14 14 25 26 25 28 0 2 -33 11 -72 21 -117 28 -320
102 -503 182 -227 100 -215 96 -415 147 -274 69 -289 74 -295 99 -9 46 -25
229 -35 397 -12 221 -13 773 -1 786 5 5 15 83 21 174 7 91 13 166 14 167 1 1
33 -28 71 -66 82 -79 218 -193 330 -275 44 -33 105 -78 135 -101 103 -78 544
-365 665 -433 346 -195 576 -296 659 -290 85 6 71 62 -50 188 -43 45 -106 104
-141 132 -47 38 -66 62 -75 90 -7 24 -8 42 -2 48 11 11 156 53 239 70 81 16
202 57 245 83 19 12 54 39 78 61 23 21 65 53 93 71 29 18 47 35 41 39 -6 3
-100 24 -209 46 -109 22 -245 52 -303 65 -195 46 -429 75 -700 86 -237 10
-262 13 -353 40 -57 18 -175 68 -285 124 -188 94 -302 143 -380 164 -23 7 -42
15 -42 20 0 14 30 226 41 286 6 33 15 62 20 66 5 3 25 63 44 135 55 203 136
435 154 442 9 3 43 27 76 54 33 26 67 48 75 48 8 0 44 -20 80 -43 277 -186
714 -392 814 -385 95 7 71 63 -102 237 -80 80 -132 140 -130 150 2 9 48 38
107 68 83 41 119 53 185 62 136 18 334 33 345 27 5 -4 104 -6 220 -7 190 0
221 2 313 25 57 13 124 27 150 31 94 13 85 17 -192 98 -47 14 -152 46 -235 72
-286 89 -446 122 -1010 210 -49 8 -162 21 -250 29 -88 9 -205 22 -260 30
l-100 15 -235 156 c-129 86 -264 173 -300 192 -36 20 -94 54 -129 75 -105 62
-341 174 -415 197 -82 25 -109 26 -131 5z"/>
</g>
</svg>
